<svg width="532" height="442" viewBox="0 0 532 442" fill="none" xmlns="http://www.w3.org/2000/svg">
<g opacity="0.708938" filter="url(#filter0_f)">
<circle cx="264.161" cy="221.315" r="84.4584" fill="white" style="mix-blend-mode:soft-light"/>
</g>
<path fill-rule="evenodd" clip-rule="evenodd" d="M259.987 290.06C298.798 290.06 330.451 258.296 330.451 219.351C330.451 180.405 298.798 148.641 259.987 148.641C221.177 148.641 189.523 180.405 189.523 219.351C189.523 258.296 221.177 290.06 259.987 290.06Z" fill="#F8F4ED"/>
<path fill-rule="evenodd" clip-rule="evenodd" d="M249.258 288.587C215.688 283.198 190.014 254.052 190.014 218.892C190.014 182.251 217.882 152.134 253.529 148.641C287.122 154.008 312.773 183.177 312.773 218.337C312.773 254.977 284.906 285.095 249.258 288.587Z" fill="#FEFEFE"/>
<path fill-rule="evenodd" clip-rule="evenodd" d="M214.878 258.679C216.066 257.231 220.303 258.819 224.331 262.184C228.359 265.548 230.663 269.449 229.476 270.874C228.289 272.299 224.052 270.734 220.023 267.37C215.996 264.006 213.691 260.104 214.878 258.679Z" fill="#F8F4ED"/>
<path fill-rule="evenodd" clip-rule="evenodd" d="M257.779 278.76C257.685 277.814 261.89 276.939 267.176 276.821C272.462 276.679 276.832 277.342 276.927 278.287C276.997 279.233 272.791 280.108 267.505 280.226C262.219 280.344 257.849 279.682 257.779 278.76Z" fill="#F8F4ED"/>
<path fill-rule="evenodd" clip-rule="evenodd" d="M238.755 260.632C239.588 258.886 244.033 259.444 248.71 261.893C253.387 264.317 256.512 267.688 255.678 269.409C254.868 271.155 250.4 270.574 245.723 268.149C241.07 265.724 237.944 262.354 238.755 260.632Z" fill="#F8F4ED"/>
<path fill-rule="evenodd" clip-rule="evenodd" d="M298.121 200.213C301.241 200.466 303.86 205.288 303.932 210.986C304.027 216.684 301.574 221.067 298.454 220.813C295.334 220.56 292.715 215.715 292.644 210.04C292.548 204.342 295.001 199.936 298.121 200.213Z" fill="#F8F4ED"/>
<path fill-rule="evenodd" clip-rule="evenodd" d="M272.561 168.805C273.107 167.026 277.686 166.795 282.811 168.273C287.936 169.753 291.66 172.386 291.115 174.165C290.569 175.922 285.99 176.152 280.865 174.674C275.74 173.195 272.016 170.561 272.561 168.805Z" fill="#F8F4ED"/>
<path fill-rule="evenodd" clip-rule="evenodd" d="M226.629 188.29C225.453 184.258 228.112 178.976 232.581 176.452C237.051 173.953 241.615 175.179 242.768 179.211C243.944 183.244 241.285 188.526 236.816 191.049C232.346 193.549 227.782 192.323 226.629 188.29Z" fill="#F8F4ED"/>
<path fill-rule="evenodd" clip-rule="evenodd" d="M201.695 207.566C203.335 207.543 204.698 211.258 204.744 215.879C204.79 220.499 203.497 224.238 201.88 224.261C200.263 224.284 198.9 220.546 198.854 215.949C198.808 211.328 200.079 207.566 201.695 207.566Z" fill="#F8F4ED"/>
<path fill-rule="evenodd" clip-rule="evenodd" d="M307.18 257.125C306.179 256.668 307.772 251.912 310.73 246.517C313.688 241.122 316.897 237.097 317.876 237.555C318.876 238.012 317.284 242.767 314.326 248.186C311.368 253.581 308.159 257.582 307.18 257.125Z" fill="#E9D9D3"/>
<path fill-rule="evenodd" clip-rule="evenodd" d="M247.64 246.177C247.525 246.223 247.41 246.246 247.295 246.292C238.981 248.655 230.16 243.286 227.558 234.27C225.232 226.194 228.756 217.912 235.503 214.607C235.619 214.562 235.734 214.539 235.849 214.516C244.163 212.13 253.006 217.499 255.586 226.515C257.912 234.591 254.411 242.873 247.64 246.177Z" fill="#F8F4ED"/>
<path fill-rule="evenodd" clip-rule="evenodd" d="M167.136 209.53L167.433 211.492L169.391 212.049L167.557 212.921L167.631 214.932L166.219 213.503L164.287 214.181L165.253 212.412L163.989 210.838L165.996 211.178L167.136 209.53Z" fill="#FEFEFE"/>
<path fill-rule="evenodd" clip-rule="evenodd" d="M181.132 267.473L181.486 269.63L183.631 270.187L181.651 271.184L181.769 273.365L180.213 271.834L178.139 272.623L179.129 270.674L177.738 268.981L179.93 269.305L181.132 267.473Z" fill="#FEFEFE"/>
<path fill-rule="evenodd" clip-rule="evenodd" d="M345.673 144.222L346.456 146.356L348.619 146.477L346.939 147.908L347.491 150.115L345.673 148.878L343.855 150.115L344.407 147.908L342.727 146.477L344.89 146.356L345.673 144.222Z" fill="#FEFEFE"/>
<path fill-rule="evenodd" clip-rule="evenodd" d="M213.011 297.917L213.625 298.604L214.545 298.349L214.034 299.115L214.566 299.881L213.645 299.665L213.072 300.372L213.011 299.469L212.111 299.154L212.99 298.82L213.011 297.917Z" fill="#FEFEFE"/>
<path fill-rule="evenodd" clip-rule="evenodd" d="M136.748 289.078L136.923 289.601L137.473 289.649L137.056 290.005L137.187 290.551L136.748 290.243L136.286 290.551L136.418 290.005L136 289.649L136.55 289.601L136.748 289.078Z" fill="#FEFEFE"/>
<path fill-rule="evenodd" clip-rule="evenodd" d="M361.141 274.838L361.463 275.727L362.368 275.769L361.664 276.382L361.905 277.293L361.141 276.764L360.376 277.293L360.618 276.382L359.913 275.769L360.819 275.727L361.141 274.838Z" fill="#FEFEFE"/>
<path fill-rule="evenodd" clip-rule="evenodd" d="M384.721 178.595L385.045 179.484L385.938 179.526L385.248 180.14L385.472 181.05L384.721 180.542L383.95 181.05L384.173 180.14L383.483 179.526L384.376 179.484L384.721 178.595Z" fill="#FEFEFE"/>
<mask id="mask0" mask-type="alpha" maskUnits="userSpaceOnUse" x="322" y="310" width="4" height="4">
<path fill-rule="evenodd" clip-rule="evenodd" d="M322.75 310.065H325.984V313.139H322.75V310.065Z" fill="white"/>
</mask>
<g mask="url(#mask0)">
<path fill-rule="evenodd" clip-rule="evenodd" d="M324.367 310.065L324.791 311.178L325.984 311.231L325.056 311.999L325.374 313.139L324.367 312.503L323.36 313.139L323.678 311.999L322.75 311.231L323.943 311.178L324.367 310.065Z" fill="#FEFEFE"/>
</g>
<path fill-rule="evenodd" clip-rule="evenodd" d="M148.031 129L148.373 129.868L149.258 129.931L148.574 130.524L148.795 131.455L148.031 130.926L147.286 131.455L147.508 130.524L146.803 129.931L147.709 129.868L148.031 129Z" fill="#FEFEFE"/>
<path fill-rule="evenodd" clip-rule="evenodd" d="M211.631 132.928L212.394 135.062L214.566 135.183L212.879 136.614L213.456 138.821L211.631 137.584L209.806 138.821L210.36 136.614L208.674 135.183L210.845 135.062L211.631 132.928Z" fill="#FEFEFE"/>
<path fill-rule="evenodd" clip-rule="evenodd" d="M364.964 209.53L366.764 210.66L368.589 209.53L368.05 211.542L369.734 212.875L367.559 212.988L366.788 214.932L365.993 212.988L363.841 212.875L365.525 211.565L364.964 209.53Z" fill="#FEFEFE"/>
<path fill-rule="evenodd" clip-rule="evenodd" d="M142.875 170.56L182.649 144.713L145.112 173.684L142.875 170.56Z" fill="#2E6FD4"/>
<path fill-rule="evenodd" clip-rule="evenodd" d="M142.816 170.822C143.859 170.504 144.949 171.117 145.244 172.161C145.561 173.183 144.971 174.296 143.928 174.591C142.884 174.886 141.794 174.296 141.477 173.251C141.182 172.207 141.772 171.117 142.816 170.822Z" fill="#FEFEFE"/>
<mask id="mask1" mask-type="alpha" maskUnits="userSpaceOnUse" x="344" y="139" width="57" height="42">
<path fill-rule="evenodd" clip-rule="evenodd" d="M344.382 139.173H400.267V180.492H344.382V139.173Z" fill="white"/>
</mask>
<g mask="url(#mask1)">
<path fill-rule="evenodd" clip-rule="evenodd" d="M344.382 177.321L400.267 139.173L346.627 180.492L344.382 177.321Z" fill="#2E6FD4"/>
</g>
<path fill-rule="evenodd" clip-rule="evenodd" d="M344.636 176.715C345.682 176.397 346.774 177.01 347.07 178.032C347.366 179.076 346.774 180.165 345.728 180.483C344.681 180.778 343.589 180.188 343.294 179.144C342.998 178.1 343.589 177.01 344.636 176.715Z" fill="#FEFEFE"/>
<path fill-rule="evenodd" clip-rule="evenodd" d="M292.15 300.151L334.87 272.383L294.372 303.318L292.15 300.151Z" fill="#2E6FD4"/>
<path fill-rule="evenodd" clip-rule="evenodd" d="M292.591 299.967C293.613 299.649 294.703 300.24 295.02 301.283C295.315 302.327 294.725 303.416 293.681 303.733C292.637 304.028 291.547 303.438 291.252 302.395C290.934 301.352 291.547 300.262 292.591 299.967Z" fill="#FEFEFE"/>
<path fill-rule="evenodd" clip-rule="evenodd" d="M139.437 274.636L163.989 259.125L141.707 277.784L139.437 274.636Z" fill="#2E6FD4"/>
<path fill-rule="evenodd" clip-rule="evenodd" d="M140.369 274.433C141.391 274.115 142.504 274.705 142.799 275.749C143.094 276.793 142.504 277.882 141.459 278.199C140.415 278.494 139.325 277.905 139.03 276.861C138.712 275.817 139.325 274.728 140.369 274.433Z" fill="#FEFEFE"/>
<path fill-rule="evenodd" clip-rule="evenodd" d="M384.209 299.881L384.554 300.756L385.447 300.82L384.757 301.418L384.98 302.336L384.209 301.823L383.458 302.336L383.682 301.418L382.992 300.82L383.884 300.756L384.209 299.881Z" fill="#FEFEFE"/>
<path d="M78.6 270.2V300H60.6V270.2H0.800001V255.8L42.6 158.6L58.2 165.2L20.4 253.8H60.6V214H78.6V253.8H95.2V270.2H78.6Z" fill="white"/>
<path d="M514.6 270.2V300H496.6V270.2H436.8V255.8L478.6 158.6L494.2 165.2L456.4 253.8H496.6V214H514.6V253.8H531.2V270.2H514.6Z" fill="white"/>
<path d="M52.7311 386.04H61.2111C62.4111 386.04 63.3711 386.067 64.0911 386.12C64.8378 386.173 65.6244 386.293 66.4511 386.48C67.3044 386.667 67.9844 386.947 68.4911 387.32C69.0244 387.693 69.4778 388.2 69.8511 388.84C70.1978 389.453 70.3711 390.227 70.3711 391.16V396.56C70.3711 398.72 69.5311 400.28 67.8511 401.24C66.1978 402.173 63.7444 402.64 60.4911 402.64H56.6111V412H52.7311V386.04ZM61.0111 400.2C62.6911 400.2 64.0378 399.893 65.0511 399.28C66.0644 398.667 66.5711 397.693 66.5711 396.36V391.64C66.5711 390.92 66.3844 390.333 66.0111 389.88C65.6378 389.4 65.1044 389.067 64.4111 388.88C63.7444 388.72 63.1844 388.613 62.7311 388.56C62.2778 388.507 61.6778 388.48 60.9311 388.48H56.5711V400.2H61.0111ZM91.1036 386.04H95.5836L105.664 412H101.624L98.6636 404.12H87.5436L84.6236 412H80.7836L91.1036 386.04ZM97.7036 401.44L93.3036 389.72H92.9436L88.5436 401.44H97.7036ZM128.797 412.4C127.571 412.4 126.477 412.347 125.517 412.24C124.584 412.133 123.597 411.933 122.557 411.64C121.384 411.32 120.397 410.92 119.597 410.44C118.797 409.933 118.144 409.253 117.637 408.4C117.104 407.493 116.837 406.48 116.837 405.36V393.08C116.837 391.587 117.224 390.307 117.997 389.24C118.771 388.173 119.837 387.4 121.197 386.92C122.504 386.467 123.744 386.147 124.917 385.96C126.117 385.747 127.411 385.64 128.797 385.64C132.104 385.64 135.091 385.853 137.757 386.28V389.28C136.744 389.04 135.291 388.827 133.397 388.64C131.531 388.427 130.024 388.32 128.877 388.32C123.411 388.32 120.677 389.893 120.677 393.04V405.28C120.677 406.133 120.931 406.88 121.437 407.52C121.971 408.16 122.691 408.627 123.597 408.92C124.451 409.24 125.304 409.467 126.157 409.6C127.011 409.707 127.971 409.76 129.037 409.76C130.824 409.76 132.731 409.52 134.757 409.04V399.96H128.677V397.24H138.357V411.2C134.891 412 131.704 412.4 128.797 412.4ZM152.278 386.04H169.718V388.76H156.158V397.24H168.398V399.96H156.158V409.28H170.118V412H152.278V386.04ZM200.7 386.04H205.38L219.5 407.48V386.04H222.9V412H218.22L204.1 390.2V412H200.7V386.04ZM247.766 412.4C240.513 412.4 236.886 410.053 236.886 405.36V393.08C236.886 388.12 240.513 385.64 247.766 385.64C255.099 385.64 258.766 388.107 258.766 393.04V405.36C258.766 407.867 257.753 409.667 255.726 410.76C253.699 411.853 251.046 412.4 247.766 412.4ZM247.846 409.8C252.619 409.8 255.006 408.307 255.006 405.32V392.96C255.006 389.76 252.606 388.16 247.806 388.16C245.486 388.16 243.699 388.52 242.446 389.24C241.219 389.96 240.606 391.2 240.606 392.96V405.32C240.606 408.307 243.019 409.8 247.846 409.8ZM279.155 388.76H270.355V386.04H291.835V388.76H283.075V412H279.155V388.76ZM321.372 386.04H339.212V388.76H325.252V397.24H337.892V399.96H325.252V412H321.372V386.04ZM361.915 412.4C354.661 412.4 351.035 410.053 351.035 405.36V393.08C351.035 388.12 354.661 385.64 361.915 385.64C369.248 385.64 372.915 388.107 372.915 393.04V405.36C372.915 407.867 371.901 409.667 369.875 410.76C367.848 411.853 365.195 412.4 361.915 412.4ZM361.995 409.8C366.768 409.8 369.155 408.307 369.155 405.32V392.96C369.155 389.76 366.755 388.16 361.955 388.16C359.635 388.16 357.848 388.52 356.595 389.24C355.368 389.96 354.755 391.2 354.755 392.96V405.32C354.755 408.307 357.168 409.8 361.995 409.8ZM397.023 412.4C395.61 412.4 394.37 412.307 393.303 412.12C392.263 411.933 391.236 411.613 390.223 411.16C389.156 410.68 388.33 409.947 387.743 408.96C387.183 407.973 386.903 406.773 386.903 405.36V386.04H390.623V405.32C390.623 406.947 391.17 408.107 392.263 408.8C393.356 409.467 394.97 409.8 397.103 409.8C399.236 409.8 400.823 409.467 401.863 408.8C402.93 408.107 403.463 406.947 403.463 405.32V386.04H407.183V405.36C407.183 410.053 403.796 412.4 397.023 412.4ZM421.934 386.04H426.614L440.734 407.48V386.04H444.134V412H439.454L425.334 390.2V412H421.934V386.04ZM458.84 386.04H469.16C476.44 386.04 480.08 388.52 480.08 393.48V404.96C480.08 409.653 476.454 412 469.2 412H458.84V386.04ZM468.92 409.36C473.88 409.36 476.36 407.867 476.36 404.88V393.44C476.36 392.48 476.16 391.667 475.76 391C475.36 390.333 474.8 389.84 474.08 389.52C473.36 389.227 472.614 389.027 471.84 388.92C471.067 388.787 470.16 388.72 469.12 388.72H462.72V409.36H468.92Z" fill="white"/>
<defs>
<filter id="filter0_f" x="43.7882" y="0.942505" width="440.745" height="440.745" filterUnits="userSpaceOnUse" color-interpolation-filters="sRGB">
<feFlood flood-opacity="0" result="BackgroundImageFix"/>
<feBlend mode="normal" in="SourceGraphic" in2="BackgroundImageFix" result="shape"/>
<feGaussianBlur stdDeviation="67.957" result="effect1_foregroundBlur"/>
</filter>
</defs>
</svg>
